<svg width="399" height="73" viewBox="0 0 399 73" fill="none" xmlns="http://www.w3.org/2000/svg">
<path d="M0 34.4033C0 46.1403 8.06879 54.08 18.5654 54.08C25.7059 54.08 30.7757 50.4209 33.132 46.3474V54.2872C33.132 62.365 27.9195 66.6455 20.9931 66.6455C14.5667 66.6455 9.92533 63.5387 8.49722 58.982H2.07075C3.35605 67.0598 10.7108 72.0998 20.9931 72.0998C32.4894 72.0998 39.7013 64.7124 39.7013 54.2872V15.6241H33.132V22.5282C30.8471 18.4548 25.7059 15.0028 18.5654 15.0028C8.06879 15.0028 0 22.5973 0 34.4033ZM33.132 34.4724C33.132 43.3787 26.9912 48.5568 19.8507 48.5568C12.7101 48.5568 6.64069 43.3096 6.64069 34.4033C6.64069 25.497 12.7101 20.457 19.8507 20.457C26.9912 20.457 33.132 25.7041 33.132 34.4724Z" fill="white"/>
<path d="M87.8128 34.4724C87.8128 22.5282 79.1728 15.0028 68.0336 15.0028C56.9658 15.0028 48.2543 22.5282 48.2543 34.4724C48.2543 46.4855 56.6801 54.08 67.748 54.08C78.8872 54.08 87.8128 46.4855 87.8128 34.4724ZM54.895 34.4724C54.895 24.9447 61.1073 20.457 67.9622 20.457C74.6743 20.457 81.1722 24.9447 81.1722 34.4724C81.1722 44.0691 74.5315 48.5568 67.748 48.5568C60.9645 48.5568 54.895 44.0691 54.895 34.4724Z" fill="white"/>
<path d="M100.093 53.4593H108.305V21.8385H115.588V15.4176H108.305V12.725C108.305 8.37544 110.019 6.71845 115.017 6.71845V0.159542C104.735 0.159542 100.093 3.95681 100.093 12.725V15.4176H95.4519V21.8385H100.093V53.4593Z" fill="white"/>
<path d="M122.802 53.4593H130.943V15.4176H122.802V53.4593ZM126.944 10.3776C129.8 10.3776 132.085 8.16832 132.085 5.33763C132.085 2.50694 129.8 0.297623 126.944 0.297623C124.016 0.297623 121.731 2.50694 121.731 5.33763C121.731 8.16832 124.016 10.3776 126.944 10.3776Z" fill="white"/>
<path d="M169.549 53.4593H177.618V31.0209C177.618 20.3886 170.692 14.7963 161.481 14.7963C156.768 14.7963 152.412 16.6604 149.77 19.7672V15.4176H141.63V53.4593H149.77V32.1946C149.77 25.2215 153.697 21.6313 159.695 21.6313C165.622 21.6313 169.549 25.2215 169.549 32.1946V53.4593Z" fill="white"/>
<path d="M185.288 34.2659C185.288 46.0029 193.5 54.0807 203.711 54.0807C210.28 54.0807 214.993 51.0429 217.492 47.7979V53.4593H225.703V15.4176H217.492V20.9409C215.064 17.8341 210.494 14.7963 203.853 14.7963C193.5 14.7963 185.288 22.5289 185.288 34.2659ZM217.492 34.404C217.492 42.6199 211.708 47.2456 205.567 47.2456C199.498 47.2456 193.642 42.4818 193.642 34.2659C193.642 26.05 199.498 21.6313 205.567 21.6313C211.708 21.6313 217.492 26.2571 217.492 34.404Z" fill="white"/>
<path d="M264.315 53.4593H272.383V31.0209C272.383 20.3886 265.457 14.7963 256.246 14.7963C251.533 14.7963 247.177 16.6604 244.535 19.7672V15.4176H236.395V53.4593H244.535V32.1946C244.535 25.2215 248.463 21.6313 254.461 21.6313C260.387 21.6313 264.315 25.2215 264.315 32.1946V53.4593Z" fill="white"/>
<path d="M280.053 34.404C280.053 46.3481 288.051 54.0807 299.333 54.0807C308.973 54.0807 315.256 48.9026 317.47 41.4462H308.687C307.187 45.3815 304.188 47.4527 299.333 47.4527C292.764 47.4527 288.408 42.7579 288.408 34.404C288.408 26.119 292.764 21.4242 299.333 21.4242C304.188 21.4242 307.33 23.7716 308.687 27.4308H317.47C315.256 19.422 308.973 14.7963 299.333 14.7963C288.051 14.7963 280.053 22.5289 280.053 34.404Z" fill="white"/>
<path d="M342.148 21.4242C348.217 21.4242 353.002 25.1524 353.144 31.0209H331.366C332.223 25.0144 336.65 21.4242 342.148 21.4242ZM360.571 42.1366H351.788C350.288 45.1053 347.503 47.4527 342.505 47.4527C336.507 47.4527 331.866 43.6555 331.294 37.3727H361.356C361.57 36.0609 361.642 34.8182 361.642 33.5064C361.642 22.3218 353.716 14.7963 342.505 14.7963C330.866 14.7963 322.869 22.4598 322.869 34.404C322.869 46.3481 331.223 54.0807 342.505 54.0807C352.145 54.0807 358.357 48.7645 360.571 42.1366Z" fill="white"/>
<path d="M399 42.827C398.572 29.0878 376.365 33.3683 376.365 25.7048C376.365 23.1502 378.65 21.4242 383.005 21.4242C387.432 21.4242 390.074 23.7026 390.36 27.0166H398.5C398.072 19.422 392.216 14.7963 383.291 14.7963C374.008 14.7963 368.153 19.6982 368.153 25.7738C368.153 39.7201 391.003 35.4396 391.003 42.896C391.003 45.5196 388.503 47.4527 383.791 47.4527C379.292 47.4527 376.222 44.8982 375.936 41.7914H367.51C367.867 48.6955 374.508 54.0807 383.933 54.0807C393.216 54.0807 399 49.2478 399 42.827Z" fill="white"/>
</svg>
