<svg width="119" height="115" viewBox="0 0 119 115" fill="none" xmlns="http://www.w3.org/2000/svg">
<path fill-rule="evenodd" clip-rule="evenodd" d="M88.6828 37.6406C89.0815 38.207 89.4241 38.8176 89.7038 39.4655C106.196 43.9149 118.336 58.6384 118.336 76.0688C118.336 97.0117 100.811 114.05 79.2686 114.05C68.0219 114.05 57.872 109.404 50.7373 101.985H23.6541C17.8252 101.985 13.0828 97.3747 13.0828 91.7079C13.0828 88.4534 14.6488 85.5492 17.085 83.6648C14.6488 81.7805 13.0828 78.8763 13.0828 75.6218C13.0828 72.3672 14.6488 69.463 17.085 67.5787C14.6488 65.6944 13.0828 62.7902 13.0828 59.5357C13.0828 56.2811 14.6488 53.3769 17.085 51.4926C14.6488 49.6083 13.0828 46.7041 13.0828 43.4495C13.0828 37.7827 17.8252 33.1723 23.6541 33.1723H29.6476C28.4774 31.5185 27.7907 29.5178 27.7907 27.3634C27.7907 25.209 28.4776 23.2082 29.6476 21.5545H11.2443C5.41541 21.5545 0.673035 16.944 0.673035 11.2773C0.673035 5.61046 5.41541 1 11.2443 1H67.548C73.3769 1 78.1193 5.61046 78.1193 11.2773C78.1193 13.4317 77.4324 15.4324 76.2624 17.0861H94.6657C100.495 17.0861 105.237 21.6966 105.237 27.3634C105.237 33.0302 100.495 37.6406 94.6657 37.6406H88.6828ZM100.641 27.3634C100.641 24.1605 97.9605 21.5545 94.6657 21.5545H38.362C35.0672 21.5545 32.3869 24.1605 32.3869 27.3634C32.3869 30.5663 35.0672 33.1723 38.362 33.1723H79.9578H94.6657C97.9605 33.1723 100.641 30.5663 100.641 27.3634ZM5.26925 11.2773C5.26925 14.4802 7.94954 17.0861 11.2443 17.0861H67.548C70.8428 17.0861 73.5231 14.4802 73.5231 11.2773C73.5231 8.07432 70.8428 5.46837 67.548 5.46837H11.2443C7.94954 5.46837 5.26925 8.07432 5.26925 11.2773ZM79.9578 37.6406H23.6541C20.3596 37.6406 17.679 40.2466 17.679 43.4495C17.679 46.6524 20.3596 49.2584 23.6541 49.2584H51.6226C58.6994 42.3615 68.4801 38.0877 79.2686 38.0877C80.379 38.0877 81.478 38.1355 82.565 38.2242C81.7698 37.8498 80.8835 37.6406 79.9578 37.6406ZM47.6958 53.7268H23.6541C20.3593 53.7268 17.679 56.3327 17.679 59.5357C17.679 62.7388 20.3593 65.3445 23.6541 65.3445H41.789C43.0699 61.1208 45.087 57.2016 47.6958 53.7268ZM40.7337 69.8129H23.6541C20.3593 69.8129 17.679 72.4186 17.679 75.6218C17.679 78.8249 20.3593 81.4307 23.6541 81.4307H40.5919C40.3361 79.6784 40.2007 77.8888 40.2007 76.0688C40.2007 73.9381 40.385 71.8489 40.7337 69.8129ZM17.679 91.7079C17.679 94.9111 20.3593 97.5168 23.6541 97.5168H47.044C44.5736 94.0194 42.6898 90.1022 41.5302 85.899H23.6541C20.3593 85.899 17.679 88.5048 17.679 91.7079ZM44.797 76.0688C44.797 94.5478 60.2609 109.582 79.2686 109.582C98.2762 109.582 113.74 94.5478 113.74 76.0688C113.74 57.5899 98.2762 42.5561 79.2686 42.5561C60.2609 42.5561 44.797 57.5899 44.797 76.0688ZM73.4066 68.4319C73.4066 71.1465 76.0313 73.3551 79.2576 73.3551C85.4169 73.3551 90.4277 77.8834 90.4277 83.4497C90.4277 88.1877 86.7964 92.1716 81.9172 93.2529V94.3698C81.9172 95.7976 80.7262 96.9554 79.2576 96.9554C77.789 96.9554 76.5981 95.7976 76.5981 94.3698V93.2529C71.7189 92.1716 68.0875 88.1877 68.0875 83.4497C68.0875 82.0219 69.2785 80.8641 70.7471 80.8641C72.2157 80.8641 73.4066 82.0219 73.4066 83.4497C73.4066 86.1645 76.0313 88.3731 79.2576 88.3731C82.4839 88.3731 85.1086 86.1645 85.1086 83.4497C85.1086 80.7348 82.4839 78.5262 79.2576 78.5262C73.0984 78.5262 68.0875 73.9978 68.0875 68.4319C68.0875 63.6938 71.7189 59.71 76.5981 58.6287V57.2839C76.5981 55.8562 77.789 54.6983 79.2576 54.6983C80.7262 54.6983 81.9172 55.8562 81.9172 57.2839V58.6287C86.7964 59.71 90.4277 63.6938 90.4277 68.4319C90.4277 69.8596 89.2368 71.0174 87.7682 71.0174C86.2996 71.0174 85.1086 69.8596 85.1086 68.4319C85.1086 65.717 82.4839 63.5084 79.2576 63.5084C76.0313 63.5084 73.4066 65.717 73.4066 68.4319Z" fill="#FF872C"/>
<path d="M89.7038 39.4655L89.4743 39.5646L89.5222 39.6754L89.6387 39.7069L89.7038 39.4655ZM88.6828 37.6406V37.3906H88.201L88.4784 37.7845L88.6828 37.6406ZM50.7373 101.985L50.9175 101.812L50.8438 101.735H50.7373V101.985ZM17.085 83.6648L17.2379 83.8626L17.4936 83.6648L17.2379 83.4671L17.085 83.6648ZM17.085 67.5787L17.2379 67.7765L17.4936 67.5787L17.2379 67.381L17.085 67.5787ZM17.085 51.4926L17.2379 51.6903L17.4936 51.4926L17.2379 51.2948L17.085 51.4926ZM29.6476 33.1723V33.4223H30.1307L29.8517 33.0279L29.6476 33.1723ZM29.6476 21.5545L29.8517 21.6989L30.1307 21.3045H29.6476V21.5545ZM76.2624 17.0861L76.0583 16.9417L75.7793 17.3361H76.2624V17.0861ZM51.6226 49.2584V49.5084H51.7242L51.797 49.4374L51.6226 49.2584ZM82.565 38.2242L82.5447 38.4734L82.6715 37.998L82.565 38.2242ZM47.6958 53.7268L47.8957 53.8769L48.1961 53.4768H47.6958V53.7268ZM41.789 65.3445V65.5945H41.9744L42.0282 65.4171L41.789 65.3445ZM40.7337 69.8129L40.9801 69.8551L41.0301 69.5629H40.7337V69.8129ZM40.5919 81.4307V81.6807H40.881L40.8393 81.3946L40.5919 81.4307ZM47.044 97.5168V97.7668H47.5267L47.2482 97.3726L47.044 97.5168ZM41.5302 85.899L41.7712 85.8326L41.7206 85.649H41.5302V85.899ZM81.9172 93.2529L81.8631 93.0088L81.6672 93.0522V93.2529H81.9172ZM76.5981 93.2529H76.8481V93.0522L76.6522 93.0088L76.5981 93.2529ZM76.5981 58.6287L76.6522 58.8728L76.8481 58.8293V58.6287H76.5981ZM81.9172 58.6287H81.6672V58.8293L81.8631 58.8728L81.9172 58.6287ZM89.9334 39.3664C89.6469 38.7028 89.2958 38.0771 88.8872 37.4967L88.4784 37.7845C88.8672 38.3369 89.2014 38.9324 89.4743 39.5646L89.9334 39.3664ZM118.586 76.0688C118.586 58.5181 106.362 43.701 89.769 39.2241L89.6387 39.7069C106.029 44.1288 118.086 58.7587 118.086 76.0688H118.586ZM79.2686 114.3C100.942 114.3 118.586 97.1563 118.586 76.0688H118.086C118.086 96.867 100.679 113.8 79.2686 113.8V114.3ZM50.5571 102.158C57.7376 109.625 67.952 114.3 79.2686 114.3V113.8C68.0918 113.8 58.0064 109.183 50.9175 101.812L50.5571 102.158ZM23.6541 102.235H50.7373V101.735H23.6541V102.235ZM12.8328 91.7079C12.8328 97.5194 17.6938 102.235 23.6541 102.235V101.735C17.9566 101.735 13.3328 97.23 13.3328 91.7079H12.8328ZM16.932 83.4671C14.4389 85.3955 12.8328 88.3708 12.8328 91.7079H13.3328C13.3328 88.536 14.8587 85.7029 17.2379 83.8626L16.932 83.4671ZM12.8328 75.6218C12.8328 78.9589 14.4389 81.9342 16.932 83.8626L17.2379 83.4671C14.8587 81.6268 13.3328 78.7937 13.3328 75.6218H12.8328ZM16.932 67.381C14.4389 69.3093 12.8328 72.2846 12.8328 75.6218H13.3328C13.3328 72.4499 14.8587 69.6167 17.2379 67.7765L16.932 67.381ZM12.8328 59.5357C12.8328 62.8728 14.4389 65.8481 16.932 67.7765L17.2379 67.381C14.8587 65.5407 13.3328 62.7076 13.3328 59.5357H12.8328ZM16.932 51.2948C14.4389 53.2232 12.8328 56.1985 12.8328 59.5357H13.3328C13.3328 56.3637 14.8587 53.5306 17.2379 51.6903L16.932 51.2948ZM12.8328 43.4495C12.8328 46.7867 14.4389 49.762 16.932 51.6903L17.2379 51.2948C14.8587 49.4546 13.3328 46.6214 13.3328 43.4495H12.8328ZM23.6541 32.9223C17.6938 32.9223 12.8328 37.6381 12.8328 43.4495H13.3328C13.3328 37.9274 17.9566 33.4223 23.6541 33.4223V32.9223ZM29.6476 32.9223H23.6541V33.4223H29.6476V32.9223ZM27.5407 27.3634C27.5407 29.5719 28.2449 31.6227 29.4435 33.3167L29.8517 33.0279C28.7099 31.4143 28.0407 29.4637 28.0407 27.3634H27.5407ZM29.4435 21.4101C28.2451 23.1041 27.5407 25.1548 27.5407 27.3634H28.0407C28.0407 25.2631 28.7101 23.3124 29.8517 21.6989L29.4435 21.4101ZM11.2443 21.8045H29.6476V21.3045H11.2443V21.8045ZM0.423035 11.2773C0.423035 17.0887 5.28404 21.8045 11.2443 21.8045V21.3045C5.54679 21.3045 0.923035 16.7994 0.923035 11.2773H0.423035ZM11.2443 0.75C5.28404 0.75 0.423035 5.46579 0.423035 11.2773H0.923035C0.923035 5.75514 5.54679 1.25 11.2443 1.25V0.75ZM67.548 0.75H11.2443V1.25H67.548V0.75ZM78.3693 11.2773C78.3693 5.46579 73.5083 0.75 67.548 0.75V1.25C73.2455 1.25 77.8693 5.75514 77.8693 11.2773H78.3693ZM76.4665 17.2305C77.6649 15.5366 78.3693 13.4858 78.3693 11.2773H77.8693C77.8693 13.3775 77.1999 15.3282 76.0583 16.9417L76.4665 17.2305ZM94.6657 16.8361H76.2624V17.3361H94.6657V16.8361ZM105.487 27.3634C105.487 21.5519 100.626 16.8361 94.6657 16.8361V17.3361C100.363 17.3361 104.987 21.8413 104.987 27.3634H105.487ZM94.6657 37.8906C100.626 37.8906 105.487 33.1748 105.487 27.3634H104.987C104.987 32.8855 100.363 37.3906 94.6657 37.3906V37.8906ZM88.6828 37.8906H94.6657V37.3906H88.6828V37.8906ZM94.6657 21.8045C97.8291 21.8045 100.391 24.3051 100.391 27.3634H100.891C100.891 24.0158 98.0919 21.3045 94.6657 21.3045V21.8045ZM38.362 21.8045H94.6657V21.3045H38.362V21.8045ZM32.6369 27.3634C32.6369 24.3051 35.1986 21.8045 38.362 21.8045V21.3045C34.9358 21.3045 32.1369 24.0158 32.1369 27.3634H32.6369ZM38.362 32.9223C35.1986 32.9223 32.6369 30.4216 32.6369 27.3634H32.1369C32.1369 30.711 34.9358 33.4223 38.362 33.4223V32.9223ZM79.9578 32.9223H38.362V33.4223H79.9578V32.9223ZM94.6657 32.9223H79.9578V33.4223H94.6657V32.9223ZM100.391 27.3634C100.391 30.4216 97.8291 32.9223 94.6657 32.9223V33.4223C98.0919 33.4223 100.891 30.711 100.891 27.3634H100.391ZM11.2443 16.8361C8.08092 16.8361 5.51925 14.3355 5.51925 11.2773H5.01925C5.01925 14.6248 7.81815 17.3361 11.2443 17.3361V16.8361ZM67.548 16.8361H11.2443V17.3361H67.548V16.8361ZM73.2731 11.2773C73.2731 14.3355 70.7114 16.8361 67.548 16.8361V17.3361C70.9742 17.3361 73.7731 14.6248 73.7731 11.2773H73.2731ZM67.548 5.71837C70.7114 5.71837 73.2731 8.21899 73.2731 11.2773H73.7731C73.7731 7.92966 70.9742 5.21837 67.548 5.21837V5.71837ZM11.2443 5.71837H67.548V5.21837H11.2443V5.71837ZM5.51925 11.2773C5.51925 8.21899 8.08092 5.71837 11.2443 5.71837V5.21837C7.81815 5.21837 5.01925 7.92966 5.01925 11.2773H5.51925ZM23.6541 37.8906H79.9578V37.3906H23.6541V37.8906ZM17.929 43.4495C17.929 40.3913 20.4909 37.8906 23.6541 37.8906V37.3906C20.2282 37.3906 17.429 40.1019 17.429 43.4495H17.929ZM23.6541 49.0084C20.4909 49.0084 17.929 46.5078 17.929 43.4495H17.429C17.429 46.7971 20.2282 49.5084 23.6541 49.5084V49.0084ZM51.6226 49.0084H23.6541V49.5084H51.6226V49.0084ZM79.2686 37.8377C68.4131 37.8377 58.5702 42.1382 51.4481 49.0794L51.797 49.4374C58.8285 42.5847 68.5471 38.3377 79.2686 38.3377V37.8377ZM82.5853 37.975C81.492 37.8858 80.3862 37.8377 79.2686 37.8377V38.3377C80.3718 38.3377 81.464 38.3852 82.5447 38.4734L82.5853 37.975ZM79.9578 37.8906C80.8456 37.8906 81.6957 38.0912 82.4585 38.4504L82.6715 37.998C81.844 37.6083 80.9213 37.3906 79.9578 37.3906V37.8906ZM23.6541 53.9768H47.6958V53.4768H23.6541V53.9768ZM17.929 59.5357C17.929 56.4774 20.4907 53.9768 23.6541 53.9768V53.4768C20.2279 53.4768 17.429 56.1881 17.429 59.5357H17.929ZM23.6541 65.0945C20.4907 65.0945 17.929 62.5941 17.929 59.5357H17.429C17.429 62.8835 20.2279 65.5945 23.6541 65.5945V65.0945ZM41.789 65.0945H23.6541V65.5945H41.789V65.0945ZM47.4959 53.5767C44.87 57.0742 42.8394 61.0195 41.5497 65.272L42.0282 65.4171C43.3005 61.2221 45.3039 57.329 47.8957 53.8769L47.4959 53.5767ZM23.6541 70.0629H40.7337V69.5629H23.6541V70.0629ZM17.929 75.6218C17.929 72.5633 20.4907 70.0629 23.6541 70.0629V69.5629C20.2279 69.5629 17.429 72.274 17.429 75.6218H17.929ZM23.6541 81.1807C20.4907 81.1807 17.929 78.6803 17.929 75.6218H17.429C17.429 78.9696 20.2279 81.6807 23.6541 81.6807V81.1807ZM40.5919 81.1807H23.6541V81.6807H40.5919V81.1807ZM39.9507 76.0688C39.9507 77.9012 40.087 79.7029 40.3445 81.4668L40.8393 81.3946C40.5852 79.6539 40.4507 77.8764 40.4507 76.0688H39.9507ZM40.4873 69.7707C40.1363 71.8203 39.9507 73.9236 39.9507 76.0688H40.4507C40.4507 73.9526 40.6338 71.8775 40.9801 69.8551L40.4873 69.7707ZM23.6541 97.2668C20.4907 97.2668 17.929 94.7664 17.929 91.7079H17.429C17.429 95.0557 20.2279 97.7668 23.6541 97.7668V97.2668ZM47.044 97.2668H23.6541V97.7668H47.044V97.2668ZM41.2892 85.9655C42.4567 90.1973 44.3532 94.1407 46.8398 97.661L47.2482 97.3726C44.794 93.8981 42.9229 90.0071 41.7712 85.8326L41.2892 85.9655ZM23.6541 86.149H41.5302V85.649H23.6541V86.149ZM17.929 91.7079C17.929 88.6494 20.4907 86.149 23.6541 86.149V85.649C20.2279 85.649 17.429 88.3601 17.429 91.7079H17.929ZM79.2686 109.332C60.3923 109.332 45.047 94.4031 45.047 76.0688H44.547C44.547 94.6925 60.1295 109.832 79.2686 109.832V109.332ZM113.49 76.0688C113.49 94.4031 98.1449 109.332 79.2686 109.332V109.832C98.4076 109.832 113.99 94.6925 113.99 76.0688H113.49ZM79.2686 42.8061C98.1449 42.8061 113.49 57.7346 113.49 76.0688H113.99C113.99 57.4452 98.4076 42.3061 79.2686 42.3061V42.8061ZM45.047 76.0688C45.047 57.7346 60.3923 42.8061 79.2686 42.8061V42.3061C60.1295 42.3061 44.547 57.4452 44.547 76.0688H45.047ZM79.2576 73.1051C76.1272 73.1051 73.6566 70.9697 73.6566 68.4319H73.1566C73.1566 71.3232 75.9354 73.6051 79.2576 73.6051V73.1051ZM90.6777 83.4497C90.6777 77.7222 85.5305 73.1051 79.2576 73.1051V73.6051C85.3032 73.6051 90.1777 78.0447 90.1777 83.4497H90.6777ZM81.9713 93.4969C86.9453 92.3946 90.6777 88.3239 90.6777 83.4497H90.1777C90.1777 88.0515 86.6474 91.9485 81.8631 93.0088L81.9713 93.4969ZM82.1672 94.3698V93.2529H81.6672V94.3698H82.1672ZM79.2576 97.2054C80.8576 97.2054 82.1672 95.9423 82.1672 94.3698H81.6672C81.6672 95.6529 80.5949 96.7054 79.2576 96.7054V97.2054ZM76.3481 94.3698C76.3481 95.9423 77.6576 97.2054 79.2576 97.2054V96.7054C77.9204 96.7054 76.8481 95.6529 76.8481 94.3698H76.3481ZM76.3481 93.2529V94.3698H76.8481V93.2529H76.3481ZM67.8375 83.4497C67.8375 88.3239 71.5699 92.3946 76.544 93.4969L76.6522 93.0088C71.8678 91.9485 68.3375 88.0515 68.3375 83.4497H67.8375ZM70.7471 80.6141C69.1471 80.6141 67.8375 81.8772 67.8375 83.4497H68.3375C68.3375 82.1666 69.4098 81.1141 70.7471 81.1141V80.6141ZM73.6566 83.4497C73.6566 81.8772 72.3471 80.6141 70.7471 80.6141V81.1141C72.0843 81.1141 73.1566 82.1666 73.1566 83.4497H73.6566ZM79.2576 88.1231C76.1272 88.1231 73.6566 85.9878 73.6566 83.4497H73.1566C73.1566 86.3413 75.9354 88.6231 79.2576 88.6231V88.1231ZM84.8586 83.4497C84.8586 85.9878 82.388 88.1231 79.2576 88.1231V88.6231C82.5798 88.6231 85.3586 86.3413 85.3586 83.4497H84.8586ZM79.2576 78.7762C82.388 78.7762 84.8586 80.9116 84.8586 83.4497H85.3586C85.3586 80.558 82.5798 78.2762 79.2576 78.2762V78.7762ZM67.8375 68.4319C67.8375 74.1591 72.9847 78.7762 79.2576 78.7762V78.2762C73.212 78.2762 68.3375 73.8366 68.3375 68.4319H67.8375ZM76.544 58.3846C71.5699 59.4869 67.8375 63.5576 67.8375 68.4319H68.3375C68.3375 63.83 71.8678 59.933 76.6522 58.8728L76.544 58.3846ZM76.3481 57.2839V58.6287H76.8481V57.2839H76.3481ZM79.2576 54.4483C77.6576 54.4483 76.3481 55.7115 76.3481 57.2839H76.8481C76.8481 56.0008 77.9204 54.9483 79.2576 54.9483V54.4483ZM82.1672 57.2839C82.1672 55.7115 80.8576 54.4483 79.2576 54.4483V54.9483C80.5949 54.9483 81.6672 56.0008 81.6672 57.2839H82.1672ZM82.1672 58.6287V57.2839H81.6672V58.6287H82.1672ZM90.6777 68.4319C90.6777 63.5576 86.9453 59.4869 81.9713 58.3846L81.8631 58.8728C86.6475 59.933 90.1777 63.83 90.1777 68.4319H90.6777ZM87.7682 71.2674C89.3682 71.2674 90.6777 70.0043 90.6777 68.4319H90.1777C90.1777 69.715 89.1054 70.7674 87.7682 70.7674V71.2674ZM84.8586 68.4319C84.8586 70.0043 86.1682 71.2674 87.7682 71.2674V70.7674C86.431 70.7674 85.3586 69.715 85.3586 68.4319H84.8586ZM79.2576 63.7584C82.388 63.7584 84.8586 65.8938 84.8586 68.4319H85.3586C85.3586 65.5403 82.5798 63.2584 79.2576 63.2584V63.7584ZM73.6566 68.4319C73.6566 65.8938 76.1272 63.7584 79.2576 63.7584V63.2584C75.9354 63.2584 73.1566 65.5403 73.1566 68.4319H73.6566Z" fill="#FF872C"/>
</svg>
