<svg width="95" height="95" viewBox="0 0 95 95" fill="none" xmlns="http://www.w3.org/2000/svg">
<path d="M73.2292 79.1666C73.2292 80.2552 72.3425 81.1458 71.25 81.1458H48.5601C47.4232 83.3268 45.9832 85.3246 44.2954 87.0833H71.25C75.62 87.0833 79.1667 83.5366 79.1667 79.1666V38.9025C79.1667 36.8045 78.3315 34.7897 76.8471 33.3054L53.774 10.2362C53.7146 10.177 53.6477 10.1257 53.5812 10.0747C53.5317 10.037 53.4831 9.9995 53.4375 9.95913C53.1565 9.70579 52.8794 9.45642 52.5707 9.24663C52.4705 9.1791 52.3613 9.12582 52.252 9.07274C52.1887 9.04182 52.1254 9.01099 52.064 8.97746C51.9979 8.94021 51.9322 8.90213 51.8661 8.86397C51.6515 8.73984 51.4362 8.61519 51.209 8.51829C50.4292 8.19371 49.59 8.03142 48.739 7.97204C48.661 7.96705 48.5838 7.95653 48.5062 7.94596C48.399 7.93131 48.2913 7.91663 48.1809 7.91663H23.75C19.38 7.91663 15.8334 11.4633 15.8334 15.8333V45.5137C17.7103 44.7307 19.6998 44.1639 21.7709 43.844V15.8333C21.7709 14.7448 22.6575 13.8541 23.75 13.8541H47.5V31.6666C47.5 36.0366 51.0467 39.5833 55.4167 39.5833H73.2292V79.1666ZM53.4375 18.2914L68.788 33.6458H55.4167C54.3242 33.6458 53.4375 32.7552 53.4375 31.6666V18.2914Z" fill="#969CB3"/>
<path d="M47.5 69.2708C47.5 81.2947 37.7529 91.0417 25.7292 91.0417C13.7055 91.0417 3.95837 81.2947 3.95837 69.2708C3.95837 57.247 13.7055 47.5 25.7292 47.5C37.7529 47.5 47.5 57.247 47.5 69.2708ZM25.7292 55.4167C24.6362 55.4167 23.75 56.3029 23.75 57.3958V73.2292C23.75 74.3221 24.6362 75.2083 25.7292 75.2083C26.8223 75.2083 27.7084 74.3221 27.7084 73.2292V57.3958C27.7084 56.3029 26.8223 55.4167 25.7292 55.4167ZM25.7292 83.6198C27.0955 83.6198 28.2032 82.5123 28.2032 81.1458C28.2032 79.7794 27.0955 78.6719 25.7292 78.6719C24.3629 78.6719 23.2552 79.7794 23.2552 81.1458C23.2552 82.5123 24.3629 83.6198 25.7292 83.6198Z" fill="#969CB3"/>
</svg>
